<?xml version="1.0" encoding="utf-8"?>
<svg xmlns="http://www.w3.org/2000/svg" xmlns:xlink="http://www.w3.org/1999/xlink" version="1.1">
  <defs>

    <symbol viewBox="0 0 638 1030" id="si-ant-caret-left">
		  <path d="M570 13L12 489Q0 500 0 515t12 26l558 476q19 16 43.5 7t24.5-33V39q0-24-24.5-33T570 13z"/>
	  </symbol>

    <symbol viewBox="0 0 638 1030" id="si-ant-caret-right">
		  <path d="M68 13l558 476q12 11 12 26t-12 26L68 1017q-19 16-43.5 7T0 991V39Q0 15 24.5 6T68 13z"/>
		</symbol>

    <symbol viewBox="0 0 1023 734" id="si-ant-check">
		  <path d="M1014 9q-10-9-23-9t-23 9L324 657 55 390q-10-10-23-10T9 390q-9 9-9 22.5T9 435l292 290q10 9 23 9t23-9l667-671q9-9 9-22.5T1014 9z"/>
		</symbol>

    <symbol viewBox="0 0 742 742" id="si-ant-cross">
		  <path d="M733 9q-9-9-22.5-9T688 9L371 326 54 9q-9-9-22.5-9T9 9 0 31.5 9 54l317 317L9 688q-9 9-9 22.5T9 733t22.5 9 22.5-9l317-317 317 317q9 9 22.5 9t22.5-9 9-22.5-9-22.5L416 371 733 54q9-9 9-22.5T733 9z"/>
		</symbol>

    <symbol viewBox="0 0 896 1024" id="si-ant-delete">
		  <path d="M864 191H705V73q0-30-21.5-51.5T632 0H264q-30 0-51.5 21.5T191 73v118H32q-13 0-22.5 9.5T0 224q0 13 9.5 22.5T32 256h33v695q0 30 21.5 51.5T138 1024h619q30 0 51.5-21.5T830 951V256h33q14 0 23.5-9.5T896 224q0-14-9.5-23.5T864 191zm-609 0V73q0-9 9-9h368q9 0 9 9v119H255v-1zm511 760q0 9-9 9H138q-9 0-9-9V256h637v695zM256 416v384q0 14-9.5 23t-22.5 9-22.5-9-9.5-23V416q0-13 9.5-22.5T224 384t22.5 9.5T256 416zm224 0v384q0 14-9.5 23t-22.5 9-22.5-9-9.5-23V416q0-13 9.5-22.5T448 384t22.5 9.5T480 416zm225 0v384q0 14-9.5 23t-22.5 9-22.5-9-9.5-23V416q0-13 9.5-22.5T673 384t22.5 9.5T705 416z"/>
		</symbol>

    <symbol viewBox="0 0 770 1024" id="si-ant-lock">
		  <path d="M770 448v-42q0-82-31-158-29-73-82-129T535 32Q463 0 385 0T235 32q-69 31-122 87.5T30 248Q0 324 0 406v545q0 30 20.5 51.5T69 1024h632q28 0 48.5-21.5T770 951V448zM64 406q0-70 26-134 25-62 69-109 45-47 102-72h1q58-27 123-27 64 0 123 26 58 26 102 73 45 48 70 109 26 64 26 134v42H64v-42zm642 545q0 9-5 9H69q-5 0-5-9V512h642v439zM448 640q0-26-18.5-44.5T385 577t-44.5 18.5T322 640q0 36 31 55v106q0 13 9.5 22.5T385 833t22.5-9.5T417 801V694q31-18 31-54z"/>
		</symbol>

    <symbol viewBox="0 0 1024 768" id="si-ant-mail">
		  <path d="M1024 59q-2-25-20.5-42T960 0H64Q38 0 19 19T0 64v640q0 26 19 45t45 19h896q26 0 45-19t19-45V59zm-112 5L512 367 130 64h782zm48 640H64V93l428 339q19 16 39 1l429-325v596z"/>
		</symbol>

    <symbol viewBox="0 0 1010 1022" id="si-ant-paper-clip">
		  <path d="M928.5 233.5Q847 152 731 152q-54-1-105 20-52 21-92 60L266 501q-46 45-45.5 110t46 110.5T376 767h1q64 0 109-45l236-236q9-9 9-22.5t-9-22.5q-9-10-22.5-10T677 441L441 676q-26 27-64 27h-1q-38 0-64.5-27t-27-65 26.5-65l269-268q62-62 151-62t152 63 63 152-62 151L599 867q-91 91-221 91t-222-92-92-222 91-221L522 55q10-9 10-22.5T522 10q-9-10-22-10t-23 10L109 378q-53 53-82 124Q0 570 0 644t28 142q28 71 83 125 54 54 125 83 67 28 142 28h1q73 0 141-27 70-28 124-82l285-285q40-40 61-93 20-50 20-104 0-116-81.5-197.5z"/>
		</symbol>

    <symbol viewBox="0 0 1024 1024" id="si-ant-setting">
		  <path d="M512 64q26 0 54 4l16 46 10 31 32 9q32 10 62 26l29 15 29-15 43-21q44 34 78 77l-22 43-14 30 15 29q15 30 26 62l9 31 31 11 46 15q4 29 4 54v1q0 26-4 54l-46 16-31 10-10 32q-9 32-25 62l-16 29 15 29 22 43q-18 23-36 42h-1q-18 18-41 36l-43-22-29-15-29 16q-30 15-62 25l-32 10-10 31-15 46q-29 4-55 4t-55-4l-15-46-10-31-32-10q-33-10-62-25l-29-16-29 15-43 22q-23-18-42-36-18-19-36-42l22-43 15-29-16-29q-16-31-25-62l-10-32-31-10-46-15q-4-29-4-55t4-55l46-15 31-10 9-32q10-32 26-62l15-29-14-29-22-43q34-44 77-78l44 22 29 15 29-16q30-15 62-26l32-9 10-31 15-46q30-4 55-4zm0-64q-37 0-81 7l-22 4-28 83q-39 12-73 30l-78-39-18 13q-66 48-115 114l-13 18 40 78q-19 36-31 73l-83 28-3 22q-7 44-7 81t7 81l3 22 83 28q12 38 31 73l-39 78 13 18q24 34 52 62 26 26 62 52l18 13 78-39q36 19 73 30l28 84 22 3q44 7 81 7t81-7l22-3 27-84q38-11 74-30l78 39 18-13q35-26 62-52 27-27 52-62l13-18-39-79q18-35 30-73l83-27 4-22q7-44 7-81t-7-81l-4-22-83-28q-12-38-30-73l39-78-13-18q-49-67-115-115l-18-13-78 39q-35-18-73-30l-27-83-22-3q-44-7-81-7zm0 386q52 0 89 37t37 89-37 89-89 37-89-37-37-89 37-89 89-37zm0-64q-79 0-134.5 55.5T322 512t55.5 134.5T512 702t134.5-55.5T702 512t-55.5-134.5T512 322z"/>
		</symbol>

    <symbol viewBox="0 0 1024 1024" id="si-ant-upload">
		  <path d="M338 236q10 9 23 9t23-9l126-127v691q0 13 9.5 22.5T542 832t22.5-9.5T574 800V109l126 127q10 9 23 9t23-9q9-10 9-23t-9-23L565 9q-10-9-23-9t-23 9L338 190q-9 10-9 23t9 23zm622 500v192q0 13-9.5 22.5T928 960H96q-13 0-22.5-9.5T64 928V736q0-13-9.5-22.5T32 704t-22.5 9.5T0 736v224q0 26 19 45t45 19h896q26 0 45-19t19-45V736q0-13-9.5-22.5T992 704t-22.5 9.5T960 736z"/>
    </symbol>

    <symbol viewBox="0 0 11.099998474121094 19.400001525878906" id="si-evil-chevron-left">
		  <path d="M9.7 19.4L0 9.7 9.7 0l1.4 1.4-8.3 8.3 8.3 8.3z"/>
		</symbol>

    <symbol viewBox="0 0 11.100000381469727 19.399999618530273" id="si-evil-chevron-right">
		  <path d="M1.4 19.4L0 18l8.3-8.3L0 1.4 1.4 0l9.7 9.7z"/>
		</symbol>

    <symbol viewBox="0 0 27.436004638671875 27.43500328063965" id="si-evil-close">
		  <path d="M26.022 0l1.414 1.414-26.022 26.02L0 26.021z"/>
		  <path d="M1.414 0l26.022 26.02-1.414 1.415L0 1.415z"/>
		</symbol>

    <symbol viewBox="0 0 34 26" id="si-evil-envelope">
		  <path d="M23.796 12.244l9.97 9.97-1.415 1.414-9.97-9.97zm-13.518.043l1.414 1.414-9.9 9.9-1.414-1.41z" opacity=".9"/>
		  <path d="M17 17.9c-1.5 0-3.1-.6-4.2-1.8L.3 3.7l1.4-1.4 12.5 12.5c1.6 1.6 4.1 1.6 5.7 0L32.4 2.3l1.4 1.4-12.6 12.5c-1.1 1.1-2.7 1.7-4.2 1.7z"/>
			<path d="M31 26H3c-1.7 0-3-1.3-3-3V3c0-1.7 1.3-3 3-3h28c1.7 0 3 1.3 3 3v20c0 1.7-1.3 3-3 3zM3 2c-.6 0-1 .4-1 1v20c0 .6.4 1 1 1h28c.6 0 1-.4 1-1V3c0-.6-.4-1-1-1H3z"/>
		</symbol>

    <symbol viewBox="0 0 37.89999771118164 38" id="si-evil-gear">
		  <path d="M19 28c-5 0-9-4-9-9s4-9 9-9 9 4 9 9-4 9-9 9zm0-16c-3.9 0-7 3.1-7 7s3.1 7 7 7 7-3.1 7-7-3.1-7-7-7z"/>
		  <path d="M21.7 38h-5.4l-1.5-4.6c-1-.3-2-.7-2.9-1.2l-4.4 2.2-3.8-3.8 2.2-4.4c-.5-.9-.9-1.9-1.2-2.9L0 21.7v-5.4l4.6-1.5c.3-1 .7-2 1.2-2.9L3.6 7.5l3.8-3.8 4.4 2.2c.9-.5 1.9-.9 2.9-1.2L16.3 0h5.4l1.5 4.6c1 .3 2 .7 2.9 1.2l4.4-2.2 3.8 3.8-2.2 4.4c.5.9.9 1.9 1.2 2.9l4.6 1.5v5.4l-4.6 1.5c-.3 1-.7 2-1.2 2.9l2.2 4.4-3.8 3.8-4.4-2.2c-.9.5-1.9.9-2.9 1.2L21.7 38zm-4-2h2.6l1.4-4.3.5-.1c1.2-.3 2.3-.8 3.4-1.4l.5-.3 4 2 1.8-1.8-2-4 .3-.5c.6-1 1.1-2.2 1.4-3.4l.1-.5 4.3-1.4v-2.6l-4.3-1.4-.1-.5c-.3-1.2-.8-2.3-1.4-3.4l-.3-.5 2-4-1.8-1.8-4 2-.5-.3c-1.1-.6-2.2-1.1-3.4-1.4l-.5-.1L20.3 2h-2.6l-1.4 4.3-.5.1c-1.2.3-2.3.8-3.4 1.4l-.5.3-4-2-1.8 1.8 2 4-.3.5c-.6 1-1.1 2.2-1.4 3.4l-.1.5L2 17.7v2.6l4.3 1.4.1.5c.3 1.2.8 2.3 1.4 3.4l.3.5-2 4 1.8 1.8 4-2 .5.3c1.1.6 2.2 1.1 3.4 1.4l.5.1 1.4 4.3z"/>
		</symbol>

    <symbol viewBox="0 0 22 30" id="si-evil-lock">
		  <g transform="translate(-14 -10)">
  		  <path d="M34 23h-2v-4c0-3.9-3.1-7-7-7s-7 3.1-7 7v4h-2v-4c0-5 4-9 9-9s9 4 9 9v4z"/>
  		  <path d="M33 40H17c-1.7 0-3-1.3-3-3V25c0-1.7 1.3-3 3-3h16c1.7 0 3 1.3 3 3v12c0 1.7-1.3 3-3 3zM17 24c-.6 0-1 .4-1 1v12c0 .6.4 1 1 1h16c.6 0 1-.4 1-1V25c0-.6-.4-1-1-1H17z"/>
  		  <circle cx="25" cy="28" r="2" />
  		  <path d="M25.5 28h-1l-1 6h3z"/>
		  </g>
		</symbol>

    <symbol viewBox="0 0 33.70000076293945 30.399999618530273" id="si-evil-paperclip">
		  <path d="M6.5 30.4c-1.5 0-3.1-.6-4.2-1.8-2.3-2.3-2.3-6.1 0-8.5l17-17c3.1-3.1 8.2-3.1 11.3 0 3.1 3.1 3.1 8.2 0 11.3L17.8 27.2l-1.4-1.4 12.7-12.7c2.3-2.3 2.3-6.1 0-8.5-2.3-2.3-6.1-2.3-8.5 0l-17 17c-.8.8-1.2 1.8-1.2 2.8 0 1.1.4 2.1 1.2 2.8 1.6 1.6 4.1 1.6 5.7 0L22 14.5c.8-.8.8-2 0-2.8-.8-.8-2-.8-2.8 0l-8.5 8.4-1.4-1.4 8.5-8.5c1.6-1.6 4.1-1.6 5.7 0 1.6 1.6 1.6 4.1 0 5.7L10.7 28.6c-1.1 1.2-2.7 1.8-4.2 1.8z"/>
		</symbol>

		<symbol viewBox="0 0 28.499998092651367 28.400001525878906" id="si-evil-pencil">
		  <path d="M0 28.4l2.5-9.9L17.4 3.6l7.4 7.4L9.9 25.9 0 28.4zm4.3-8.9l-1.5 6.1 6.1-1.5L22 11l-4.6-4.6L4.3 19.5z"/>
		  <path d="M8.2 25.3c-.6-2.5-2.6-4.5-5.1-5.1l.5-1.9c3.2.8 5.7 3.3 6.5 6.5l-1.9.5z"/>
		  <path d="M19.698 7.287l1.414 1.414-13.01 13.02-1.414-1.41zM1.4 27l2.9-.7c-.3-1.1-1.1-1.9-2.2-2.2L1.4 27zm24-16.6L18 3l3-3 .5.1c3.6.5 6.4 3.3 6.9 6.9l.1.5-3.1 2.9zM20.8 3l4.6 4.6.9-.9c-.5-2.3-2.3-4.1-4.6-4.6l-.9.9z"/>
		</symbol>

    <symbol viewBox="0 0 31.599998474121094 27.200000762939453" id="si-evil-sc-telegram">
		  <path d="M28.6.6L.9 11.6c-.9.3-.8 1.6.1 1.9l7 2.2 2.8 8.8c.2.7 1.1.9 1.6.4l4.1-3.8 7.8 5.7c.6.4 1.4.1 1.6-.6L31.3 3c.3-1.7-1.2-3-2.7-2.4zM12.4 17.4l-.9 5.2-2-7.2L29 2.6 12.4 17.4z"/>
		</symbol>

    <symbol viewBox="0 0 37.39999771118164 35.400001525878906" id="si-evil-star">
		  <path d="M7.8 35.4c-.2 0-.4-.1-.6-.2-.4-.3-.5-.7-.4-1.1l3.9-12L.5 14.6c-.4-.3-.5-.7-.4-1.1s.5-.7 1-.7h12.7L17.6.7c.1-.4.5-.7 1-.7s.8.3 1 .7l3.9 12.1h12.7c.4 0 .8.2 1 .6s0 .9-.4 1.1l-10.2 7.4 3.9 12c.1.4 0 .9-.4 1.1s-.8.3-1.2 0l-10.3-7.2-10.2 7.4c-.2.1-.4.2-.6.2zm10.8-9.9c.2 0 .4.1.6.2l8.3 6.1-3.2-9.8c-.1-.4 0-.9.4-1.1l8.3-6.1H22.7c-.4 0-.8-.3-1-.7l-3.1-9.8-3.2 9.8c-.1.4-.5.7-1 .7H4.1l8.3 6.1c.4.3.5.7.4 1.1l-3.1 9.8 8.3-6.1c.2-.1.4-.2.6-.2z"/>
		</symbol>

    <symbol viewBox="0 0 26 32" id="si-evil-trash">
		  <path d="M8 10h2v16H8zm4 0h2v16h-2zm4 0h2v16h-2zM0 4h26v2H0zm18 0h-2V3c0-.6-.4-1-1-1h-4c-.6 0-1 .4-1 1v1H8V3c0-1.7 1.3-3 3-3h4c1.7 0 3 1.3 3 3v1z"/>
		  <path d="M19 32H7c-1.6 0-3-1.3-3.2-2.9L2 5.1l2-.2 1.8 24c0 .6.6 1.1 1.2 1.1h12c.6 0 1.1-.5 1.2-1.1l1.8-24 2 .2-1.8 24C22 30.7 20.6 32 19 32z"/>
		</symbol>
  
		<symbol viewBox="0 0 31.661998748779297 31.66100311279297" id="si-evil-search">
		  <path d="M13 26C5.8 26 0 20.2 0 13S5.8 0 13 0s13 5.8 13 13-5.8 13-13 13zm0-24C6.9 2 2 6.9 2 13s4.9 11 11 11 11-4.9 11-11S19.1 2 13 2zm9.682 19.267l8.98 8.98-1.414 1.414-8.98-8.98z"/>
		</symbol>

    <symbol viewBox="0 0 26 26" id="si-evil-redo">
		  <path d="M13 26C5.8 26 0 20.2 0 13S5.8 0 13 0c5.4 0 10.1 3.4 11.9 8.7l-1.9.7C21.5 4.8 17.6 2 13 2 6.9 2 2 6.9 2 13s4.9 11 11 11c4.3 0 8.2-2.5 10-6.4l1.8.8C22.7 23 18.1 26 13 26z"/>
		  <path d="M26 10h-8V8h6V2h2z"/>
		</symbol>

    <symbol viewBox="0 0 37.599998474121094 23" id="si-evil-retweet">
		  <path d="M31.8 21.5h-2v-18c0-.6-.4-1-1-1h-17v-2h17c1.7 0 3 1.3 3 3v18z"/>
		  <path d="M30.8 23L24 15.2l1.6-1.4 5.2 6.2 5.2-6.2 1.6 1.4zm-5-.5h-17c-1.7 0-3-1.3-3-3v-18h2v18c0 .6.4 1 1 1h17v2z"/>
		  <path d="M12 9.2L6.8 3 1.6 9.2 0 7.8 6.8 0l6.8 7.8z"/>
		</symbol>

  </defs>
</svg>
