<?xml version="1.0" encoding="iso-8859-1"?>
<svg version="1.1" id="Capa_1" xmlns="http://www.w3.org/2000/svg" xmlns:xlink="http://www.w3.org/1999/xlink" x="0px" y="0px"
	 viewBox="0 0 41.093 41.093" style="enable-background:new 0 0 41.093 41.093;" xml:space="preserve">
<g>
	<path style="fill:#7a7a7a;" d="M31.848,27.135c-0.701-1.586-2.285-2.699-4.128-2.699c-1.536,0-2.892,0.775-3.708,1.95
		c-2.992-1.252-6.331-3.519-8.852-7.622c1.051-0.827,1.739-2.096,1.739-3.534c0-2.432-1.936-4.408-4.347-4.499
		C14.863,8.869,26.257,0,33.632,0c1.679,0,3.148,0.459,4.255,1.566C43.653,7.331,34.173,23.41,31.848,27.135z M23.374,27.789
		c-0.334-0.335-0.737-0.632-1.196-0.865c-2.392-1.215-5.42-3.275-7.485-6.543c-0.222-0.352-0.474-0.666-0.746-0.932
		c-0.49,0.182-1.013,0.296-1.565,0.296c-0.799,0-1.539-0.226-2.191-0.592c-0.072,0.066-0.143,0.133-0.213,0.209
		c-1.51,1.67-3.114,4.112-3.599,7.269c-0.396,2.279-2.972,5.053-4.558,5.053c-1.585,0,4.954,4.359,7.332-6.935
		c0.793-2.873,4.558-2.938,2.972-0.131c-1.583,2.807-5.447,9.247-9.806,11.426c-4.359,2.18,7.53-2.279,11.79-9.66
		c0.793-1.734,2.477,0.352,1.288,1.538c-1.189,1.187-6.478,5.565-6.806,8.676s0.861-3.13,9.778-7.49
		c1.585-0.793,2.774,1.387,0.594,2.576s-9.367,5.548-8.201,9.115c0.572,1.585,1.76-3.666,7.408-5.548
		c2.45-0.817,4.233-2.211,5.467-3.529c0.107-0.115,0.199-0.232,0.282-0.352c-0.448-0.701-0.716-1.527-0.716-2.419
		C23.203,28.547,23.274,28.162,23.374,27.789z M12.384,17.746c0.344,0,0.671-0.07,0.969-0.194c0.156-0.065,0.304-0.145,0.442-0.239
		c0.142-0.096,0.272-0.209,0.391-0.331c0.44-0.453,0.714-1.07,0.714-1.751c0-1.331-1.036-2.409-2.344-2.499
		c-0.058-0.004-0.113-0.017-0.172-0.017c-0.118,0-0.232,0.019-0.346,0.035c-0.169,0.023-0.331,0.062-0.488,0.117
		c-0.978,0.345-1.683,1.268-1.683,2.364C9.868,16.619,10.994,17.746,12.384,17.746z M30.164,28.378
		c-0.042-0.18-0.106-0.351-0.184-0.513c-0.406-0.843-1.261-1.429-2.26-1.429c-0.656,0-1.248,0.257-1.696,0.668
		c-0.132,0.121-0.252,0.253-0.356,0.399c-0.098,0.139-0.184,0.287-0.253,0.444c-0.134,0.308-0.211,0.647-0.211,1.004
		c0,1.39,1.126,2.516,2.516,2.516c1.39,0.001,2.516-1.125,2.516-2.515c0-0.023-0.006-0.045-0.007-0.068
		C30.224,28.71,30.202,28.542,30.164,28.378z"/>
</g>
</svg>
